<svg xmlns="http://www.w3.org/2000/svg" style="display: none;">
  <symbol id="face-oval" viewBox="0 0 40 40">
    <ellipse cx="20" cy="20" rx="12" ry="16" fill="none" stroke="currentColor" stroke-width="2"/>
    <circle cx="16" cy="16" r="2" fill="currentColor"/>
    <circle cx="24" cy="16" r="2" fill="currentColor"/>
    <path d="M16 24 Q20 28 24 24" fill="none" stroke="currentColor" stroke-width="2"/>
  </symbol>
  <symbol id="face-round" viewBox="0 0 40 40">
    <circle cx="20" cy="20" r="14" fill="none" stroke="currentColor" stroke-width="2"/>
    <circle cx="15" cy="18" r="2" fill="currentColor"/>
    <circle cx="25" cy="18" r="2" fill="currentColor"/>
    <path d="M15 26 Q20 30 25 26" fill="none" stroke="currentColor" stroke-width="2"/>
  </symbol>
  <symbol id="face-square" viewBox="0 0 40 40">
    <rect x="6" y="4" width="28" height="32" rx="4" fill="none" stroke="currentColor" stroke-width="2"/>
    <circle cx="15" cy="16" r="2" fill="currentColor"/>
    <circle cx="25" cy="16" r="2" fill="currentColor"/>
    <path d="M14 26 L26 26" fill="none" stroke="currentColor" stroke-width="2"/>
  </symbol>
  <symbol id="face-heart" viewBox="0 0 40 40">
    <path d="M20 6 C8 6 4 20 20 34 C36 20 32 6 20 6 Z" fill="none" stroke="currentColor" stroke-width="2"/>
    <circle cx="15" cy="16" r="2" fill="currentColor"/>
    <circle cx="25" cy="16" r="2" fill="currentColor"/>
    <path d="M15 24 Q20 28 25 24" fill="none" stroke="currentColor" stroke-width="2"/>
  </symbol>
  <symbol id="face-diamond" viewBox="0 0 40 40">
    <polygon points="20,2 36,20 20,38 4,20" fill="none" stroke="currentColor" stroke-width="2"/>
    <circle cx="16" cy="16" r="2" fill="currentColor"/>
    <circle cx="24" cy="16" r="2" fill="currentColor"/>
    <path d="M16 24 L24 24" fill="none" stroke="currentColor" stroke-width="2"/>
  </symbol>
  <!-- Frame shapes for possible later use -->
  <symbol id="shape-rectangle" viewBox="0 0 40 40">
    <rect x="8" y="10" width="24" height="20" rx="4" fill="none" stroke="currentColor" stroke-width="2"/>
    <path d="M14 20 L26 20" stroke="currentColor" stroke-width="1.5"/>
  </symbol>
  <symbol id="shape-round" viewBox="0 0 40 40">
    <circle cx="20" cy="20" r="14" fill="none" stroke="currentColor" stroke-width="2"/>
    <path d="M14 20 L26 20" stroke="currentColor" stroke-width="1.5"/>
  </symbol>
  <symbol id="shape-aviator" viewBox="0 0 40 40">
    <path d="M8 14 Q20 6 32 14 L30 28 Q20 32 10 28 Z" fill="none" stroke="currentColor" stroke-width="2"/>
    <path d="M13 18 L27 18" stroke="currentColor" stroke-width="1.5"/>
  </symbol>
  <symbol id="shape-cateye" viewBox="0 0 40 40">
    <path d="M6 14 L18 8 L22 20 L18 32 L6 26 Z" fill="none" stroke="currentColor" stroke-width="2"/>
    <path d="M34 14 L22 8 L18 20 L22 32 L34 26 Z" fill="none" stroke="currentColor" stroke-width="2"/>
    <path d="M14 20 L26 20" stroke="currentColor" stroke-width="1.5"/>
  </symbol>
  <symbol id="shape-wayfarer" viewBox="0 0 40 40">
    <rect x="6" y="12" width="12" height="16" rx="2" fill="none" stroke="currentColor" stroke-width="2"/>
    <rect x="22" y="12" width="12" height="16" rx="2" fill="none" stroke="currentColor" stroke-width="2"/>
    <path d="M18 22 L22 22" stroke="currentColor" stroke-width="2"/>
  </symbol>
  <!-- Glasses case for empty state (simple) -->
  <symbol id="glasses-case" viewBox="0 0 40 40">
    <rect x="10" y="14" width="20" height="16" rx="3" fill="none" stroke="currentColor" stroke-width="2"/>
    <path d="M14 14 L14 10 Q14 4 20 4 Q26 4 26 10 L26 14" fill="none" stroke="currentColor" stroke-width="2"/>
    <circle cx="20" cy="24" r="3" fill="currentColor"/>
  </symbol>
</svg>